<svg xmlns="http://www.w3.org/2000/svg" width="1024" height="1024" viewBox="0 0 1024 1024">
  <rect width="1024" height="1024" fill="#0A0A0A"/>
  <!-- dial ring -->
  <circle cx="512" cy="512" r="380" fill="none" stroke="#EAEAEA" stroke-opacity="0.14" stroke-width="2"/>
  <!-- 60 tick marks, one red -->
  <g stroke="#EAEAEA" stroke-opacity="0.55" stroke-width="3">
    <line x1="512" y1="132" x2="512" y2="158" transform="rotate(6 512 512)"/>
    <line x1="512" y1="132" x2="512" y2="158" transform="rotate(12 512 512)"/>
    <line x1="512" y1="132" x2="512" y2="158" transform="rotate(18 512 512)"/>
    <line x1="512" y1="132" x2="512" y2="158" transform="rotate(24 512 512)"/>
    <line x1="512" y1="132" x2="512" y2="158" transform="rotate(30 512 512)"/>
    <line x1="512" y1="132" x2="512" y2="158" transform="rotate(36 512 512)"/>
    <line x1="512" y1="132" x2="512" y2="158" transform="rotate(42 512 512)"/>
    <line x1="512" y1="132" x2="512" y2="158" transform="rotate(48 512 512)"/>
    <line x1="512" y1="132" x2="512" y2="158" transform="rotate(54 512 512)"/>
    <line x1="512" y1="132" x2="512" y2="158" transform="rotate(66 512 512)"/>
    <line x1="512" y1="132" x2="512" y2="158" transform="rotate(72 512 512)"/>
    <line x1="512" y1="132" x2="512" y2="158" transform="rotate(78 512 512)"/>
    <line x1="512" y1="132" x2="512" y2="158" transform="rotate(84 512 512)"/>
    <line x1="512" y1="132" x2="512" y2="158" transform="rotate(90 512 512)"/>
    <line x1="512" y1="132" x2="512" y2="158" transform="rotate(96 512 512)"/>
    <line x1="512" y1="132" x2="512" y2="158" transform="rotate(102 512 512)"/>
    <line x1="512" y1="132" x2="512" y2="158" transform="rotate(108 512 512)"/>
    <line x1="512" y1="132" x2="512" y2="158" transform="rotate(114 512 512)"/>
    <line x1="512" y1="132" x2="512" y2="158" transform="rotate(120 512 512)"/>
    <line x1="512" y1="132" x2="512" y2="158" transform="rotate(126 512 512)"/>
    <line x1="512" y1="132" x2="512" y2="158" transform="rotate(132 512 512)"/>
    <line x1="512" y1="132" x2="512" y2="158" transform="rotate(138 512 512)"/>
    <line x1="512" y1="132" x2="512" y2="158" transform="rotate(144 512 512)"/>
    <line x1="512" y1="132" x2="512" y2="158" transform="rotate(150 512 512)"/>
    <line x1="512" y1="132" x2="512" y2="158" transform="rotate(156 512 512)"/>
    <line x1="512" y1="132" x2="512" y2="158" transform="rotate(162 512 512)"/>
    <line x1="512" y1="132" x2="512" y2="158" transform="rotate(168 512 512)"/>
    <line x1="512" y1="132" x2="512" y2="158" transform="rotate(174 512 512)"/>
    <line x1="512" y1="132" x2="512" y2="158" transform="rotate(180 512 512)"/>
    <line x1="512" y1="132" x2="512" y2="158" transform="rotate(186 512 512)"/>
    <line x1="512" y1="132" x2="512" y2="158" transform="rotate(192 512 512)"/>
    <line x1="512" y1="132" x2="512" y2="158" transform="rotate(198 512 512)"/>
    <line x1="512" y1="132" x2="512" y2="158" transform="rotate(204 512 512)"/>
    <line x1="512" y1="132" x2="512" y2="158" transform="rotate(210 512 512)"/>
    <line x1="512" y1="132" x2="512" y2="158" transform="rotate(216 512 512)"/>
    <line x1="512" y1="132" x2="512" y2="158" transform="rotate(222 512 512)"/>
    <line x1="512" y1="132" x2="512" y2="158" transform="rotate(228 512 512)"/>
    <line x1="512" y1="132" x2="512" y2="158" transform="rotate(234 512 512)"/>
    <line x1="512" y1="132" x2="512" y2="158" transform="rotate(240 512 512)"/>
    <line x1="512" y1="132" x2="512" y2="158" transform="rotate(246 512 512)"/>
    <line x1="512" y1="132" x2="512" y2="158" transform="rotate(252 512 512)"/>
    <line x1="512" y1="132" x2="512" y2="158" transform="rotate(258 512 512)"/>
    <line x1="512" y1="132" x2="512" y2="158" transform="rotate(264 512 512)"/>
    <line x1="512" y1="132" x2="512" y2="158" transform="rotate(270 512 512)"/>
    <line x1="512" y1="132" x2="512" y2="158" transform="rotate(276 512 512)"/>
    <line x1="512" y1="132" x2="512" y2="158" transform="rotate(282 512 512)"/>
    <line x1="512" y1="132" x2="512" y2="158" transform="rotate(288 512 512)"/>
    <line x1="512" y1="132" x2="512" y2="158" transform="rotate(294 512 512)"/>
    <line x1="512" y1="132" x2="512" y2="158" transform="rotate(300 512 512)"/>
    <line x1="512" y1="132" x2="512" y2="158" transform="rotate(306 512 512)"/>
    <line x1="512" y1="132" x2="512" y2="158" transform="rotate(312 512 512)"/>
    <line x1="512" y1="132" x2="512" y2="158" transform="rotate(318 512 512)"/>
    <line x1="512" y1="132" x2="512" y2="158" transform="rotate(324 512 512)"/>
    <line x1="512" y1="132" x2="512" y2="158" transform="rotate(330 512 512)"/>
    <line x1="512" y1="132" x2="512" y2="158" transform="rotate(336 512 512)"/>
    <line x1="512" y1="132" x2="512" y2="158" transform="rotate(342 512 512)"/>
    <line x1="512" y1="132" x2="512" y2="158" transform="rotate(348 512 512)"/>
    <line x1="512" y1="132" x2="512" y2="158" transform="rotate(354 512 512)"/>
  </g>
  <!-- the single red tick at 0 -->
  <line x1="512" y1="124" x2="512" y2="170" stroke="#FF2A2A" stroke-width="6"/>
  <!-- sweep hand -->
  <line x1="512" y1="512" x2="512" y2="196" stroke="#EAEAEA" stroke-width="5" stroke-linecap="square" transform="rotate(47 512 512)"/>
  <circle cx="512" cy="512" r="10" fill="#FF2A2A"/>
  <!-- wordmark -->
  <text x="512" y="600" text-anchor="middle" font-family="'Arial Black','Archivo Black',sans-serif" font-size="118" letter-spacing="6" fill="#EAEAEA">MINUTE</text>
  <text x="512" y="668" text-anchor="middle" font-family="'Consolas','JetBrains Mono',monospace" font-size="40" letter-spacing="10" fill="#EAEAEA" fill-opacity="0.75">T-<tspan fill="#FF2A2A">60</tspan>s</text>
</svg>
